mtllib Model.mtl
v -40.417620 -16.083082 -0.000000
v -36.724971 25.747162 -0.000000
v -40.417620 -16.083082 47.926505
v -36.724971 25.747162 47.926505
v -36.467448 28.664379 -0.000000
v -36.467448 28.664379 47.926505
v -46.709901 29.655886 -0.000000
v -46.709901 29.655886 47.926505
v -50.660072 -15.091573 -0.000000
v -50.660072 -15.091573 47.926505
vn 0.996126 -0.087935 0.000000
vn 0.996126 -0.087935 0.000000
vn 0.096353 0.995347 0.000000
vn -0.996126 0.087935 0.000000
vn -0.096354 -0.995347 -0.000000
vn -0.000000 -0.000000 -1.000000
vn 0.000000 0.000000 1.000000
usemtl Model_Model.dgn_Default_0_0_255_vis
f 1//1 2//1 4//1
f 4//1 3//1 1//1
f 2//2 5//2 6//2
f 6//2 4//2 2//2
f 5//3 7//3 8//3
f 8//3 6//3 5//3
f 7//4 9//4 10//4
f 10//4 8//4 7//4
f 9//5 1//5 3//5
f 3//5 10//5 9//5
f 2//6 1//6 9//6
f 9//6 7//6 2//6
f 7//6 5//6 2//6
f 4//7 10//7 3//7
f 10//7 4//7 8//7
f 8//7 4//7 6//7

v 46.730040 -24.506285 -0.000000
v 50.660072 20.013084 -0.000000
v 46.730040 -24.506285 47.926505
v 50.660072 20.013084 47.926505
v 40.599441 20.986992 -0.000000
v 40.599441 20.986992 47.926505
v 40.344897 18.103522 -0.000000
v 40.344897 18.103522 47.926505
v 36.669409 -23.532375 -0.000000
v 36.669409 -23.532375 47.926505
vn 0.996126 -0.087935 0.000000
vn 0.096354 0.995347 0.000000
vn -0.996126 0.087935 0.000000
vn -0.996126 0.087935 0.000000
vn -0.096354 -0.995347 -0.000000
vn -0.000000 -0.000000 -1.000000
vn 0.000000 0.000000 1.000000
usemtl Model_Model.dgn_Default_0_0_255_vis
f 11//8 12//8 14//8
f 14//8 13//8 11//8
f 12//9 15//9 16//9
f 16//9 14//9 12//9
f 15//10 17//10 18//10
f 18//10 16//10 15//10
f 17//11 19//11 20//11
f 20//11 18//11 17//11
f 19//12 11//12 13//12
f 13//12 20//12 19//12
f 12//13 11//13 17//13
f 17//13 15//13 12//13
f 11//13 19//13 17//13
f 14//14 18//14 13//14
f 18//14 14//14 16//14
f 13//14 18//14 20//14

v -2.738225 -27.406685 -0.000000
v 2.081086 26.950696 -0.000000
v -2.738225 -27.406685 50.000000
v 2.081086 26.950696 50.000000
v 23.579662 24.869555 -0.000000
v 23.579662 24.869555 50.000000
v 23.129492 19.770036 -0.000000
v 23.129492 19.770036 50.000000
v 21.008258 -22.016312 -0.000000
v 21.008258 -22.016312 50.000000
v 20.327426 -29.655886 -0.000000
v 20.327426 -29.655886 50.000000
vn -0.996093 0.088313 0.000000
vn 0.096353 0.995347 0.000000
vn 0.996126 -0.087935 0.000000
vn 0.998714 -0.050699 0.000000
vn 0.996052 -0.088767 0.000000
vn -0.097053 -0.995279 -0.000000
vn 0.000000 0.000000 -1.000000
vn 0.000000 0.000000 1.000000
usemtl Model_Model.dgn_Default_0_0_255_vis
f 21//15 24//15 22//15
f 24//15 21//15 23//15
f 22//16 26//16 25//16
f 26//16 22//16 24//16
f 25//17 28//17 27//17
f 28//17 25//17 26//17
f 27//18 30//18 29//18
f 30//18 27//18 28//18
f 29//19 32//19 31//19
f 32//19 29//19 30//19
f 31//20 23//20 21//20
f 23//20 31//20 32//20
f 21//21 29//21 31//21
f 29//21 21//21 27//21
f 27//21 21//21 22//21
f 27//21 22//21 25//21
f 23//22 32//22 30//22
f 30//22 28//22 23//22
f 28//22 24//22 23//22
f 28//22 26//22 24//22

v 2.081086 26.950696 -0.000000
v -19.417490 29.031837 -0.000000
v 2.081086 26.950696 50.000000
v -19.417490 29.031837 50.000000
v -19.851643 24.113762 -0.000000
v -19.851643 24.113762 50.000000
v -25.127086 -17.563266 -0.000000
v -25.127086 -17.563266 50.000000
v -25.803877 -25.157485 -0.000000
v -25.803877 -25.157485 50.000000
v -2.738225 -27.406685 -0.000000
v -2.738225 -27.406685 50.000000
vn 0.096353 0.995347 0.000000
vn -0.996126 0.087935 0.000000
vn -0.992084 0.125577 0.000000
vn -0.996052 0.088767 0.000000
vn -0.097053 -0.995279 -0.000000
vn 0.996093 -0.088313 0.000000
vn 0.000000 0.000000 -1.000000
vn 0.000000 0.000000 1.000000
usemtl Model_Model.dgn_Default_0_0_255_vis
f 33//23 34//23 36//23
f 36//23 35//23 33//23
f 34//24 37//24 38//24
f 38//24 36//24 34//24
f 37//25 39//25 40//25
f 40//25 38//25 37//25
f 39//26 41//26 42//26
f 42//26 40//26 39//26
f 41//27 43//27 44//27
f 44//27 42//27 41//27
f 43//28 33//28 35//28
f 35//28 44//28 43//28
f 39//29 37//29 43//29
f 43//29 41//29 39//29
f 37//29 33//29 43//29
f 37//29 34//29 33//29
f 40//30 44//30 38//30
f 44//30 40//30 42//30
f 38//30 44//30 35//30
f 38//30 35//30 36//30

v 40.344897 18.103522 -0.000000
v 36.669409 -23.532375 -0.000000
v 40.344897 18.103522 45.000000
v 36.669409 -23.532375 45.000000
v 21.008258 -22.016312 -0.000000
v 21.008258 -22.016312 45.000000
v 23.129492 19.770036 -0.000000
v 23.129492 19.770036 45.000000
vn 0.996126 -0.087935 0.000000
vn -0.096354 -0.995347 -0.000000
vn -0.998714 0.050699 0.000000
vn 0.096353 0.995347 0.000000
vn 0.000000 0.000000 -1.000000
vn 0.000000 0.000000 1.000000
usemtl Model_Model.dgn_Default_0_0_255_vis
f 45//31 48//31 46//31
f 48//31 45//31 47//31
f 46//32 50//32 49//32
f 50//32 46//32 48//32
f 49//33 52//33 51//33
f 52//33 49//33 50//33
f 51//34 47//34 45//34
f 47//34 51//34 52//34
f 49//35 45//35 46//35
f 45//35 49//35 51//35
f 50//36 48//36 47//36
f 47//36 52//36 50//36

v -25.127086 -17.563266 -0.000000
v -19.851643 24.113762 -0.000000
v -25.127086 -17.563266 45.000000
v -19.851643 24.113762 45.000000
v -36.724971 25.747162 -0.000000
v -36.724971 25.747162 45.000000
v -40.417620 -16.083082 -0.000000
v -40.417620 -16.083082 45.000000
vn 0.992084 -0.125577 0.000000
vn 0.096353 0.995347 0.000000
vn -0.996126 0.087935 0.000000
vn -0.096354 -0.995347 -0.000000
vn -0.000000 -0.000000 -1.000000
vn 0.000000 0.000000 1.000000
usemtl Model_Model.dgn_Default_0_0_255_vis
f 53//37 54//37 56//37
f 56//37 55//37 53//37
f 54//38 57//38 58//38
f 58//38 56//38 54//38
f 57//39 59//39 60//39
f 60//39 58//39 57//39
f 59//40 53//40 55//40
f 55//40 60//40 59//40
f 53//41 59//41 57//41
f 57//41 54//41 53//41
f 55//42 58//42 60//42
f 58//42 55//42 56//42

v 23.579662 24.869555 50.000000
v 2.081086 26.950696 53.577660
v -2.738225 -27.406685 53.577660
v 20.327426 -29.655886 50.000000
vn 0.162780 -0.014432 0.986557
vn 0.152403 -0.009090 0.988277
usemtl Model_Model.dgn_Default_0_0_255_vis
f 63//43 61//43 62//43
f 61//44 63//44 64//44

v 2.081086 26.950696 53.577660
v -2.738225 -27.406685 53.577660
v -25.803877 -25.157485 50.000000
v -19.417490 29.031837 50.000000
vn 0.162780 -0.014432 -0.986557
vn 0.151549 -0.017861 -0.988288
usemtl Model_Model.dgn_Default_0_0_255_vis
f 66//45 68//45 65//45
f 68//46 66//46 67//46

v 23.579662 24.869555 50.000000
v 2.081086 26.950696 53.577660
v -19.417490 29.031837 50.000000
v 2.081086 26.950696 50.000000
vn -0.096353 -0.995347 -0.000000
vn -0.096353 -0.995347 0.000000
usemtl Model_Model.dgn_Default_0_0_255_vis
f 70//47 72//47 69//47
f 72//48 70//48 71//48

v -25.803877 -25.157485 50.000000
v -2.738225 -27.406685 53.577660
v 20.327426 -29.655886 50.000000
v -2.738225 -27.406685 50.000000
vn 0.097053 0.995279 0.000000
vn 0.097053 0.995279 0.000000
usemtl Model_Model.dgn_Default_0_0_255_vis
f 74//49 76//49 73//49
f 76//50 74//50 75//50

v -46.709901 29.655886 47.926505
v -36.467448 28.664379 49.926505
v -40.417620 -16.083082 49.926505
v -50.660072 -15.091573 47.926505
vn 0.190055 -0.016777 -0.981630
vn 0.190055 -0.016777 -0.981630
usemtl Model_Model.dgn_Default_0_0_255_vis
f 78//51 80//51 77//51
f 80//52 78//52 79//52

v 46.730040 -24.506285 47.926505
v 36.669409 -23.532375 49.926505
v 40.599441 20.986992 49.926505
v 50.660072 20.013084 47.926505
vn -0.193361 0.017069 -0.980979
vn -0.193361 0.017069 -0.980979
usemtl Model_Model.dgn_Default_0_0_255_vis
f 82//53 84//53 81//53
f 84//54 82//54 83//54

v 21.008258 -22.016312 50.000000
v 23.129492 19.770036 50.000000
v 40.344897 18.103522 45.000000
v 36.669409 -23.532375 45.000000
vn -0.301689 0.026632 -0.953034
vn -0.277626 0.014093 -0.960586
usemtl Model_Model.dgn_Default_0_0_255_vis
f 85//55 87//55 88//55
f 87//56 85//56 86//56

v -19.851643 24.113762 50.000000
v -25.127086 -17.563266 50.000000
v -40.417620 -16.083082 45.000000
v -36.724971 25.747162 45.000000
v -19.987421 24.469981 49.972056
vn 0.286997 0.034294 -0.957317
vn 0.280771 -0.035540 -0.959117
vn 0.308308 -0.027217 -0.950897
usemtl Model_Model.dgn_Default_0_0_255_vis
f 89//57 92//57 93//57
f 92//58 89//58 90//58
f 92//59 90//59 91//59

v -46.709901 29.655886 -0.000000
v -50.660072 -15.091573 -0.000000
v -25.127086 -17.563266 -0.000000
v -25.803877 -25.157485 -0.000000
v 20.327426 -29.655886 -0.000000
v 21.008258 -22.016312 -0.000000
v 46.730040 -24.506285 -0.000000
v 50.660072 20.013084 -0.000000
v 40.599441 20.986992 -0.000000
v 40.344897 18.103522 -0.000000
v 23.129492 19.770036 -0.000000
v 23.579662 24.869555 -0.000000
v -19.417490 29.031837 -0.000000
v -19.851643 24.113762 -0.000000
v -36.724971 25.747162 -0.000000
v -36.467448 28.664379 -0.000000
v -46.709901 29.655886 47.926505
v -36.467448 28.664379 49.926505
v -36.467448 28.664379 47.926505
v -40.417620 -16.083082 49.926505
v -50.660072 -15.091573 47.926505
v -40.417620 -16.083082 47.926505
v -40.417620 -16.083082 49.926505
v -36.467448 28.664379 49.926505
v -36.467448 28.664379 47.926505
v -40.417620 -16.083082 47.926505
v 36.669409 -23.532375 49.926505
v 46.730040 -24.506285 47.926505
v 36.669409 -23.532375 47.926505
v 50.660072 20.013084 47.926505
v 40.599441 20.986992 49.926505
v 40.599441 20.986992 47.926505
v 40.599441 20.986992 49.926505
v 36.669409 -23.532375 49.926505
v 36.669409 -23.532375 47.926505
v 40.599441 20.986992 47.926505
v 40.344897 18.103522 45.000000
v 23.129492 19.770036 50.000000
v 23.129492 19.770036 45.000000
v 21.008258 -22.016312 45.000000
v 21.008258 -22.016312 50.000000
v 36.669409 -23.532375 45.000000
v -25.127086 -17.563266 50.000000
v -40.417620 -16.083082 45.000000
v -25.127086 -17.563266 45.000000
v -19.851643 24.113762 45.000000
v -19.987421 24.469981 49.972056
v -36.724971 25.747162 45.000000
vn 0.000000 0.000000 1.000000
vn 0.096353 0.995347 0.000000
vn -0.096354 -0.995347 -0.000000
vn -0.996126 0.087935 0.000000
vn 0.096354 0.995347 0.000000
vn -0.096354 -0.995347 0.000000
vn 0.996126 -0.087935 0.000000
vn -0.096353 -0.995347 0.000000
vn 0.096354 0.995347 0.000000
vn -0.096354 -0.995347 -0.000000
vn -0.096127 -0.993008 0.068518
usemtl Model_Model.dgn_Default_0_0_255_vis
f 108//60 94//60 95//60
f 94//60 108//60 109//60
f 96//60 108//60 95//60
f 108//60 96//60 107//60
f 103//60 100//60 101//60
f 100//60 103//60 99//60
f 99//60 103//60 104//60
f 99//60 104//60 96//60
f 99//60 96//60 97//60
f 99//60 97//60 98//60
f 96//60 104//60 107//60
f 107//60 105//60 106//60
f 105//60 107//60 104//60
f 103//60 101//60 102//60
f 110//61 111//61 112//61
f 113//62 114//62 115//62
f 117//63 119//63 116//63
f 119//63 117//63 118//63
f 120//64 121//64 122//64
f 123//65 124//65 125//65
f 127//66 129//66 126//66
f 129//66 127//66 128//66
f 130//67 131//67 132//67
f 133//68 134//68 135//68
f 136//69 137//69 138//69
f 139//70 140//70 141//70

