mtllib Sphere.mtl
v -5.000000 0.000000 -0.000000
v -4.619398 0.000000 -1.913417
v -4.619398 -1.913417 -0.000000
v -4.267767 -1.767767 -1.913417
v -4.619398 1.913417 -0.000000
v -4.267767 1.767767 -1.913417
v -4.619398 0.000000 1.913417
v -4.267767 -1.767767 1.913417
v -3.535534 0.000000 -3.535534
v -3.266407 -1.352990 -3.535534
v -3.535534 -3.535534 -0.000000
v -4.267767 1.767767 1.913417
v -3.266407 -3.266407 -1.913417
v -3.266407 1.352990 -3.535534
v -3.266407 -3.266407 1.913417
v -3.266407 3.266407 -1.913417
v -3.535534 3.535534 -0.000000
v -2.500000 -2.500000 -3.535534
v -3.535534 0.000000 3.535534
v -3.266407 -1.352990 3.535534
v -2.500000 2.500000 -3.535534
v -3.266407 3.266407 1.913417
v -3.266407 1.352990 3.535534
v -1.913417 0.000000 -4.619398
v -1.767767 -0.732233 -4.619398
v -1.767767 -4.267767 -1.913417
v -1.767767 0.732233 -4.619398
v -1.913417 -4.619398 -0.000000
v -2.500000 -2.500000 3.535534
v -1.352990 -3.266407 -3.535534
v -1.352990 -1.352990 -4.619398
v -1.767767 -4.267767 1.913417
v -1.352990 1.352990 -4.619398
v -2.500000 2.500000 3.535534
v -1.767767 4.267767 -1.913417
v -1.352990 3.266407 -3.535534
v -0.732233 -1.767767 -4.619398
v -1.913417 4.619398 -0.000000
v -1.913417 0.000000 4.619398
v -0.732233 1.767767 -4.619398
v -1.767767 -0.732233 4.619398
v -1.352990 -3.266407 3.535534
v -1.767767 4.267767 1.913417
v -1.767767 0.732233 4.619398
v -1.352990 -1.352990 4.619398
v 0.000000 -1.913417 -4.619398
v -0.000000 -3.535534 -3.535534
v 0.000000 -0.000000 -5.000000
v -0.000000 -4.619398 -1.913417
v -1.352990 1.352990 4.619398
v -1.352990 3.266407 3.535534
v 0.000000 1.913417 -4.619398
v -0.000000 -5.000000 0.000000
v -0.732233 -1.767767 4.619398
v 0.000000 3.535534 -3.535534
v -0.000000 -4.619398 1.913417
v 0.732233 -1.767767 -4.619398
v -0.732233 1.767767 4.619398
v 0.000000 4.619398 -1.913417
v -0.000000 -3.535534 3.535534
v 0.732233 1.767767 -4.619398
v 0.000000 5.000000 0.000000
v -0.000000 -1.913417 4.619398
v 1.352990 -3.266407 -3.535534
v 1.352990 -1.352990 -4.619398
v 0.000000 4.619398 1.913417
v -0.000000 0.000000 5.000000
v 0.000000 3.535534 3.535534
v -0.000000 1.913417 4.619398
v 1.352990 1.352990 -4.619398
v 1.767767 -0.732233 -4.619398
v 1.767767 -4.267767 -1.913417
v 1.352990 3.266407 -3.535534
v 1.767767 0.732233 -4.619398
v 0.732233 -1.767767 4.619398
v 1.913417 -0.000000 -4.619398
v 1.913417 -4.619398 0.000000
v 0.732233 1.767767 4.619398
v 1.352990 -3.266407 3.535534
v 1.767767 -4.267767 1.913417
v 2.500000 -2.500000 -3.535534
v 1.352990 -1.352990 4.619398
v 1.767767 4.267767 -1.913417
v 1.352990 1.352990 4.619398
v 1.352990 3.266407 3.535534
v 2.500000 2.500000 -3.535534
v 1.913417 4.619398 0.000000
v 1.767767 -0.732233 4.619398
v 1.767767 4.267767 1.913417
v 1.767767 0.732233 4.619398
v 1.913417 -0.000000 4.619398
v 3.266407 -1.352990 -3.535534
v 3.266407 -3.266407 -1.913417
v 2.500000 -2.500000 3.535534
v 3.266407 1.352990 -3.535534
v 3.535534 -0.000000 -3.535534
v 2.500000 2.500000 3.535534
v 3.535534 -3.535534 0.000000
v 3.266407 -3.266407 1.913417
v 3.266407 3.266407 -1.913417
v 3.266407 -1.352990 3.535534
v 3.266407 3.266407 1.913417
v 4.267767 -1.767767 -1.913417
v 3.535534 3.535534 0.000000
v 3.266407 1.352990 3.535534
v 3.535534 -0.000000 3.535534
v 4.267767 1.767767 -1.913417
v 4.619398 -0.000000 -1.913417
v 4.267767 -1.767767 1.913417
v 4.619398 -1.913417 0.000000
v 4.267767 1.767767 1.913417
v 4.619398 1.913417 0.000000
v 4.619398 -0.000000 1.913417
v 5.000000 -0.000000 0.000000
vn -1.000000 0.000000 -0.000000
vn -0.923682 0.000000 -0.383160
vn -0.923880 -0.382683 -0.000000
vn -0.853371 -0.353478 -0.383160
vn -0.923880 0.382683 -0.000000
vn -0.853371 0.353478 -0.383160
vn -0.923682 0.000000 0.383160
vn -0.853371 -0.353478 0.383160
vn -0.706584 0.000000 -0.707629
vn -0.652799 -0.270398 -0.707629
vn -0.707107 -0.707107 -0.000000
vn -0.853371 0.353478 0.383160
vn -0.653142 -0.653142 -0.383160
vn -0.652799 0.270398 -0.707629
vn -0.653142 -0.653142 0.383160
vn -0.653142 0.653142 -0.383160
vn -0.707107 0.707107 -0.000000
vn -0.499631 -0.499631 -0.707629
vn -0.706584 0.000000 0.707629
vn -0.652799 -0.270398 0.707629
vn -0.499631 0.499631 -0.707629
vn -0.653142 0.653142 0.383160
vn -0.652799 0.270398 0.707629
vn -0.382195 0.000000 -0.924082
vn -0.353102 -0.146260 -0.924082
vn -0.353478 -0.853371 -0.383160
vn -0.353102 0.146260 -0.924082
vn -0.382683 -0.923880 -0.000000
vn -0.499631 -0.499631 0.707629
vn -0.270398 -0.652799 -0.707629
vn -0.270253 -0.270253 -0.924082
vn -0.353478 -0.853371 0.383160
vn -0.270253 0.270253 -0.924082
vn -0.499631 0.499631 0.707629
vn -0.353478 0.853371 -0.383160
vn -0.270398 0.652799 -0.707629
vn -0.146260 -0.353102 -0.924082
vn -0.382683 0.923880 -0.000000
vn -0.382195 0.000000 0.924082
vn -0.146260 0.353102 -0.924082
vn -0.353102 -0.146260 0.924082
vn -0.270398 -0.652799 0.707629
vn -0.353478 0.853371 0.383160
vn -0.353102 0.146260 0.924082
vn -0.270253 -0.270253 0.924082
vn 0.000000 -0.382195 -0.924082
vn -0.000000 -0.706584 -0.707629
vn 0.000000 0.000000 -1.000000
vn -0.000000 -0.923682 -0.383160
vn -0.270253 0.270253 0.924082
vn -0.270398 0.652799 0.707629
vn 0.000000 0.382195 -0.924082
vn -0.000000 -1.000000 0.000000
vn -0.146260 -0.353102 0.924082
vn 0.000000 0.706584 -0.707629
vn -0.000000 -0.923682 0.383160
vn 0.146260 -0.353102 -0.924082
vn -0.146260 0.353102 0.924082
vn 0.000000 0.923682 -0.383160
vn -0.000000 -0.706584 0.707629
vn 0.146260 0.353102 -0.924082
vn 0.000000 1.000000 0.000000
vn -0.000000 -0.382195 0.924082
vn 0.270398 -0.652799 -0.707629
vn 0.270253 -0.270253 -0.924082
vn 0.000000 0.923682 0.383160
vn -0.000000 0.000000 1.000000
vn 0.000000 0.706584 0.707629
vn -0.000000 0.382195 0.924082
vn 0.270253 0.270253 -0.924082
vn 0.353102 -0.146260 -0.924082
vn 0.353478 -0.853371 -0.383160
vn 0.270398 0.652799 -0.707629
vn 0.353102 0.146260 -0.924082
vn 0.146260 -0.353102 0.924082
vn 0.382195 -0.000000 -0.924082
vn 0.382683 -0.923880 0.000000
vn 0.146260 0.353102 0.924082
vn 0.270398 -0.652799 0.707629
vn 0.353478 -0.853371 0.383160
vn 0.499631 -0.499631 -0.707629
vn 0.270253 -0.270253 0.924082
vn 0.353478 0.853371 -0.383160
vn 0.270253 0.270253 0.924082
vn 0.270398 0.652799 0.707629
vn 0.499631 0.499631 -0.707629
vn 0.382683 0.923880 0.000000
vn 0.353102 -0.146260 0.924082
vn 0.353478 0.853371 0.383160
vn 0.353102 0.146260 0.924082
vn 0.382195 -0.000000 0.924082
vn 0.652799 -0.270398 -0.707629
vn 0.653142 -0.653142 -0.383160
vn 0.499631 -0.499631 0.707629
vn 0.652799 0.270398 -0.707629
vn 0.706584 -0.000000 -0.707629
vn 0.499631 0.499631 0.707629
vn 0.707107 -0.707107 0.000000
vn 0.653142 -0.653142 0.383160
vn 0.653142 0.653142 -0.383160
vn 0.652799 -0.270398 0.707629
vn 0.653142 0.653142 0.383160
vn 0.853371 -0.353478 -0.383160
vn 0.707107 0.707107 0.000000
vn 0.652799 0.270398 0.707629
vn 0.706584 -0.000000 0.707629
vn 0.853371 0.353478 -0.383160
vn 0.923682 -0.000000 -0.383160
vn 0.853371 -0.353478 0.383160
vn 0.923880 -0.382683 0.000000
vn 0.853371 0.353478 0.383160
vn 0.923880 0.382683 0.000000
vn 0.923682 -0.000000 0.383160
vn 1.000000 -0.000000 0.000000
usemtl Sphere_Sphere.dgn_Default_255_0_255_vis
f 67//67 88//88 91//91
f 67//67 82//82 88//88
f 67//67 75//75 82//82
f 67//67 63//63 75//75
f 67//67 54//54 63//63
f 67//67 45//45 54//54
f 67//67 41//41 45//45
f 67//67 39//39 41//41
f 67//67 44//44 39//39
f 67//67 50//50 44//44
f 67//67 58//58 50//50
f 67//67 69//69 58//58
f 67//67 78//78 69//69
f 67//67 84//84 78//78
f 67//67 90//90 84//84
f 67//67 91//91 90//90
f 76//76 71//71 48//48
f 71//71 65//65 48//48
f 65//65 57//57 48//48
f 57//57 46//46 48//48
f 46//46 37//37 48//48
f 37//37 31//31 48//48
f 31//31 25//25 48//48
f 25//25 24//24 48//48
f 24//24 27//27 48//48
f 27//27 33//33 48//48
f 33//33 40//40 48//48
f 40//40 52//52 48//48
f 52//52 61//61 48//48
f 61//61 70//70 48//48
f 70//70 74//74 48//48
f 74//74 76//76 48//48
f 106//106 91//91 101//101
f 101//101 91//91 88//88
f 101//101 88//88 94//94
f 94//94 88//88 82//82
f 79//79 94//94 75//75
f 75//75 94//94 82//82
f 79//79 75//75 60//60
f 60//60 75//75 63//63
f 42//42 60//60 54//54
f 54//54 60//60 63//63
f 29//29 42//42 45//45
f 45//45 42//42 54//54
f 29//29 45//45 41//41
f 29//29 41//41 20//20
f 19//19 20//20 39//39
f 39//39 20//20 41//41
f 23//23 19//19 44//44
f 44//44 19//19 39//39
f 34//34 23//23 50//50
f 50//50 23//23 44//44
f 34//34 50//50 51//51
f 51//51 50//50 58//58
f 68//68 51//51 69//69
f 69//69 51//51 58//58
f 68//68 69//69 78//78
f 68//68 78//78 85//85
f 85//85 78//78 97//97
f 97//97 78//78 84//84
f 97//97 84//84 90//90
f 97//97 90//90 105//105
f 106//106 105//105 90//90
f 106//106 90//90 91//91
f 109//109 113//113 101//101
f 101//101 113//113 106//106
f 109//109 101//101 99//99
f 99//99 101//101 94//94
f 80//80 99//99 79//79
f 79//79 99//99 94//94
f 56//56 80//80 60//60
f 60//60 80//80 79//79
f 32//32 56//56 42//42
f 42//42 56//56 60//60
f 15//15 32//32 29//29
f 29//29 32//32 42//42
f 8//8 15//15 20//20
f 20//20 15//15 29//29
f 7//7 8//8 19//19
f 19//19 8//8 20//20
f 7//7 19//19 23//23
f 7//7 23//23 12//12
f 22//22 12//12 23//23
f 22//22 23//23 34//34
f 43//43 22//22 51//51
f 51//51 22//22 34//34
f 66//66 43//43 68//68
f 68//68 43//43 51//51
f 89//89 66//66 85//85
f 85//85 66//66 68//68
f 102//102 89//89 97//97
f 97//97 89//89 85//85
f 111//111 102//102 105//105
f 105//105 102//102 97//97
f 113//113 111//111 106//106
f 106//106 111//111 105//105
f 110//110 114//114 109//109
f 109//109 114//114 113//113
f 98//98 110//110 99//99
f 99//99 110//110 109//109
f 77//77 98//98 99//99
f 77//77 99//99 80//80
f 77//77 80//80 56//56
f 77//77 56//56 53//53
f 53//53 56//56 28//28
f 28//28 56//56 32//32
f 11//11 28//28 32//32
f 11//11 32//32 15//15
f 11//11 15//15 8//8
f 11//11 8//8 3//3
f 1//1 3//3 7//7
f 7//7 3//3 8//8
f 1//1 7//7 5//5
f 5//5 7//7 12//12
f 17//17 5//5 12//12
f 17//17 12//12 22//22
f 17//17 22//22 43//43
f 17//17 43//43 38//38
f 38//38 43//43 62//62
f 62//62 43//43 66//66
f 87//87 62//62 66//66
f 87//87 66//66 89//89
f 104//104 87//87 102//102
f 102//102 87//87 89//89
f 112//112 104//104 102//102
f 112//112 102//102 111//111
f 112//112 111//111 114//114
f 114//114 111//111 113//113
f 103//103 108//108 110//110
f 110//110 108//108 114//114
f 103//103 110//110 93//93
f 93//93 110//110 98//98
f 72//72 93//93 98//98
f 72//72 98//98 77//77
f 49//49 72//72 77//77
f 49//49 77//77 53//53
f 26//26 49//49 28//28
f 28//28 49//49 53//53
f 13//13 26//26 11//11
f 11//11 26//26 28//28
f 4//4 13//13 11//11
f 4//4 11//11 3//3
f 2//2 4//4 3//3
f 2//2 3//3 1//1
f 2//2 1//1 6//6
f 6//6 1//1 5//5
f 16//16 6//6 5//5
f 16//16 5//5 17//17
f 35//35 16//16 38//38
f 38//38 16//16 17//17
f 59//59 35//35 62//62
f 62//62 35//35 38//38
f 83//83 59//59 87//87
f 87//87 59//59 62//62
f 100//100 83//83 104//104
f 104//104 83//83 87//87
f 107//107 100//100 112//112
f 112//112 100//100 104//104
f 108//108 107//107 112//112
f 108//108 112//112 114//114
f 92//92 96//96 108//108
f 92//92 108//108 103//103
f 92//92 103//103 81//81
f 81//81 103//103 93//93
f 64//64 81//81 72//72
f 72//72 81//81 93//93
f 47//47 64//64 49//49
f 49//49 64//64 72//72
f 30//30 47//47 26//26
f 26//26 47//47 49//49
f 18//18 30//30 13//13
f 13//13 30//30 26//26
f 18//18 13//13 10//10
f 10//10 13//13 4//4
f 9//9 10//10 2//2
f 2//2 10//10 4//4
f 14//14 9//9 6//6
f 6//6 9//9 2//2
f 21//21 14//14 16//16
f 16//16 14//14 6//6
f 21//21 16//16 36//36
f 36//36 16//16 35//35
f 36//36 35//35 55//55
f 55//55 35//35 59//59
f 55//55 59//59 73//73
f 73//73 59//59 83//83
f 73//73 83//83 86//86
f 86//86 83//83 100//100
f 95//95 86//86 100//100
f 95//95 100//100 107//107
f 96//96 95//95 108//108
f 108//108 95//95 107//107
f 71//71 76//76 92//92
f 92//92 76//76 96//96
f 65//65 71//71 92//92
f 65//65 92//92 81//81
f 65//65 81//81 64//64
f 65//65 64//64 57//57
f 46//46 57//57 47//47
f 47//47 57//57 64//64
f 37//37 46//46 30//30
f 30//30 46//46 47//47
f 31//31 37//37 18//18
f 18//18 37//37 30//30
f 25//25 31//31 18//18
f 25//25 18//18 10//10
f 24//24 25//25 9//9
f 9//9 25//25 10//10
f 27//27 24//24 14//14
f 14//14 24//24 9//9
f 33//33 27//27 21//21
f 21//21 27//27 14//14
f 40//40 33//33 36//36
f 36//36 33//33 21//21
f 40//40 36//36 52//52
f 52//52 36//36 55//55
f 61//61 52//52 55//55
f 61//61 55//55 73//73
f 70//70 61//61 86//86
f 86//86 61//61 73//73
f 74//74 70//70 86//86
f 74//74 86//86 95//95
f 76//76 74//74 96//96
f 96//96 74//74 95//95

